<svg id="Layer_1" data-name="Layer 1" xmlns="http://www.w3.org/2000/svg" viewBox="0 0 512 512"><defs><style>.cls-1{fill:#fff;}</style></defs><title>Artboard 1</title><path id="White" class="cls-1" d="M374.72,122.55H137.28a14.74,14.74,0,0,0-14.73,14.73V374.72a14.74,14.74,0,0,0,14.73,14.73H265.11V286.09H230.33V245.81h34.78v-29.7c0-34.48,21.05-53.25,51.81-53.25A285.15,285.15,0,0,1,348,164.45v36H326.67c-16.73,0-20,7.94-20,19.61v25.71h39.88l-5.19,40.28H306.71V389.45h68a14.74,14.74,0,0,0,14.73-14.73V137.28A14.74,14.74,0,0,0,374.72,122.55Z"/></svg>