<svg id="Layer_1" xmlns="http://www.w3.org/2000/svg" viewBox="0 0 400 400"><style>.st0{fill:#fff}</style><path class="st0" d="M194 68.8c40.1 0 44.8.2 60.6.9 14.6.7 22.5 3.1 27.9 5.2 13.1 5.1 23.4 15.4 28.5 28.5 2 5.3 4.5 13.2 5.1 27.9.7 15.8.9 20.6.9 60.6s-.1 44.8-.9 60.6c-.7 14.6-3.1 22.5-5.1 27.9-5.1 13.1-15.4 23.4-28.5 28.5-5.3 2.1-13.2 4.5-27.9 5.2-15.8.7-20.5.9-60.6.9s-44.8-.2-60.6-.9c-14.6-.7-22.6-3.1-27.9-5.2-13.1-5-23.5-15.4-28.5-28.5-2.1-5.3-4.5-13.2-5.2-27.9-.7-15.8-.9-20.5-.9-60.6s.1-44.8.9-60.6c.7-14.6 3.1-22.5 5.2-27.9 5-13.1 15.4-23.5 28.5-28.5 5.3-2.1 13.2-4.5 27.9-5.2 15.8-.8 20.5-1 60.6-.9m0-27.1c-40.7 0-45.8.2-61.8.9s-26.9 3.3-36.5 7c-20.2 7.8-36.1 23.7-43.8 43.8-3.7 9.5-6.2 20.5-7 36.5S44 151 44 191.7s.2 45.8.9 61.8 3.3 26.9 7 36.4c7.8 20.2 23.7 36.1 43.9 43.9 9.5 3.7 20.4 6.3 36.4 7 16 .8 21.1.9 61.9.9s45.8-.2 61.8-.9 26.9-3.3 36.4-7c20.2-7.8 36.1-23.7 43.9-43.9 3.7-9.5 6.2-20.4 7-36.4s.9-21.1.9-61.8-.2-45.9-.9-61.9-3.3-26.8-7-36.3c-7.8-20.1-23.7-36.1-43.9-43.9-9.5-3.7-20.4-6.2-36.4-7s-21.2-.8-61.9-.9z"/><path class="st0" d="M194 114.7c-42.5 0-77 34.5-77 77s34.5 77 77 77 77-34.5 77-77-34.5-77-77-77zm0 127c-27.6 0-50-22.4-50-50s22.4-50 50-50 50 22.4 50 50-22.4 50-50 50z"/><circle class="st0" cx="274.1" cy="111.7" r="18"/></svg>