<svg id="Layer_1" data-name="Layer 1" xmlns="http://www.w3.org/2000/svg" viewBox="0 0 800 280"><defs><style>.cls-1{fill:none;stroke:#68cbda;stroke-miterlimit:10;stroke-width:10px;}.cls-2{fill:#fff;}.cls-3{fill:#68cbda;}</style></defs><title>Room Four Dessert Logo</title><rect class="cls-1" x="36" y="30.63" width="727" height="219"/><circle class="cls-2" cx="504" cy="208" r="9"/><path class="cls-3" d="M110.13,98.54h7v9.33C119.81,101.71,125.27,97,133,97a16.65,16.65,0,0,1,7.57,1.76l-3.52,6.33c-.7-.52-2.11-1.4-5.28-1.4-14.43,0-14.61,19.18-14.61,28.15v38.55h-7Z"/><path class="cls-3" d="M218.55,134.62c0,21.3-16.37,37.66-37.67,37.66s-37.66-16.36-37.66-37.66S159.59,97,180.88,97,218.55,113.33,218.55,134.62Zm-7.4,0c0-17.42-13-31-30.27-31s-30.27,13.55-30.27,31,13,31,30.27,31S211.15,152,211.15,134.62Z"/><path class="cls-3" d="M305.66,134.62c0,21.3-16.36,37.66-37.66,37.66s-37.66-16.36-37.66-37.66S246.71,97,268,97,305.66,113.33,305.66,134.62Zm-7.39,0c0-17.42-13-31-30.27-31s-30.27,13.55-30.27,31,13,31,30.27,31S298.27,152,298.27,134.62Z"/><path class="cls-3" d="M322,98.54h7v9C334.53,98.19,342.8,97,347.73,97c14.08,0,18.65,9.33,20.06,13,4-8.62,11.79-13,21.3-13,7.92,0,13,2.81,16.19,6,5.81,5.81,6.16,13.73,6.16,19.54v47.87h-7V122.48c0-4.75-.35-10.74-4.23-14.79-3.16-3.34-7.39-4-10.73-4-19,0-19.19,19-19.19,23.4v43.3h-7V124.24c0-4.58-.36-20.59-15.84-20.59-12.5,0-18.31,10.91-18.31,25.16v41.54h-7Z"/><path class="cls-2" d="M483.07,60H443.29v42.59H482v7H443.29v60.72h-7.74V53h47.52Z"/><path class="cls-2" d="M561,134.62c0,21.3-16.37,37.66-37.66,37.66s-37.67-16.36-37.67-37.66S502.08,97,523.38,97,561,113.33,561,134.62Zm-7.39,0c0-17.42-13-31-30.27-31s-30.28,13.55-30.28,31,13,31,30.28,31S553.65,152,553.65,134.62Z"/><path class="cls-2" d="M584.45,98.54v43.3c0,5.1.17,12.67,4.57,17.95s10.91,5.81,14.26,5.81,9.85-.53,14.25-5.81,4.58-12.85,4.58-17.95V98.54h7v45.23c0,5.81-.53,13.38-5.46,19.71-5.45,7-14.08,8.8-20.41,8.8s-15-1.76-20.42-8.8c-4.93-6.33-5.45-13.9-5.45-19.71V98.54Z"/><path class="cls-2" d="M650.09,98.54h7v9.33C659.77,101.71,665.23,97,673,97a16.65,16.65,0,0,1,7.57,1.76L677,105.05c-.7-.52-2.11-1.4-5.28-1.4-14.43,0-14.61,19.18-14.61,28.15v38.55h-7Z"/><path class="cls-3" d="M325.71,221V189H332a16.14,16.14,0,0,1,11.81,4.47,16.76,16.76,0,0,1,0,23.09A16.17,16.17,0,0,1,332,221Zm2.11-1.92H332c8.45,0,14.26-5.76,14.26-14.07S340.39,190.9,332,190.9h-4.17Z"/><path class="cls-3" d="M369.53,190.9H356.28v11.62h13v1.92h-13v14.64h13.25V221H354.17V189h15.36Z"/><path class="cls-3" d="M389.83,194.41a6.84,6.84,0,0,0-6.29-3.94,5.69,5.69,0,0,0-6,5.95c0,3.46,2.4,4.61,5.62,6.19a45.4,45.4,0,0,1,6.38,3.36,7,7,0,0,1,3.41,6.2c0,5.37-4.51,9.36-10,9.36a9.15,9.15,0,0,1-7.44-3.36,10.53,10.53,0,0,1-2.07-3.51l1.83-.86a10.89,10.89,0,0,0,1.72,3.07,7.7,7.7,0,0,0,6,2.74,7.44,7.44,0,0,0,7.72-7.4,5.64,5.64,0,0,0-3.12-5c-.91-.52-2.78-1.48-5.42-2.78-3.17-1.54-4.75-2.4-5.86-4.22a6.89,6.89,0,0,1-1-3.65,7.78,7.78,0,0,1,8.21-8,8.57,8.57,0,0,1,7.78,4.56Z"/><path class="cls-3" d="M411.82,194.41a6.86,6.86,0,0,0-6.29-3.94,5.69,5.69,0,0,0-5.95,5.95c0,3.46,2.4,4.61,5.61,6.19a45.63,45.63,0,0,1,6.39,3.36,7.06,7.06,0,0,1,3.41,6.2c0,5.37-4.52,9.36-10,9.36a9.15,9.15,0,0,1-7.44-3.36,10.46,10.46,0,0,1-2.06-3.51l1.82-.86a10.88,10.88,0,0,0,1.73,3.07,7.68,7.68,0,0,0,6,2.74,7.45,7.45,0,0,0,7.73-7.4,5.64,5.64,0,0,0-3.12-5c-.91-.52-2.79-1.48-5.43-2.78-3.16-1.54-4.75-2.4-5.85-4.22a6.89,6.89,0,0,1-1-3.65,7.78,7.78,0,0,1,8.21-8,8.57,8.57,0,0,1,7.77,4.56Z"/><path class="cls-3" d="M436.06,190.9H422.81v11.62h13v1.92h-13v14.64h13.25V221H420.7V189h15.36Z"/><path class="cls-3" d="M455.21,221l-10.37-15.12h-1V221h-2.11V189h4.61c2.45,0,4.65.19,6.77,1.63a8,8,0,0,1,3.31,6.87,7.68,7.68,0,0,1-5.38,7.77,12.17,12.17,0,0,1-3.94.63L457.61,221Zm-11.33-17H447c4.56,0,7.3-2.4,7.3-6.53,0-3.22-1.58-4.9-2.83-5.57a11.41,11.41,0,0,0-4.9-1h-2.64Z"/><path class="cls-3" d="M468.31,190.9V221H466.2V190.9h-8.3V189h18.72v1.92Z"/><circle class="cls-2" cx="291" cy="208" r="9"/></svg>