<svg id="Layer_1" data-name="Layer 1" xmlns="http://www.w3.org/2000/svg" viewBox="0 0 249.9 203.2"><title>Twitter_bird_logo_2012</title><path d="M82.1,230C176.4,230,228,151.8,228,84.1c0-2.2,0-4.4-.1-6.6a104.47,104.47,0,0,0,25.6-26.6A103.93,103.93,0,0,1,224,59a51.59,51.59,0,0,0,22.6-28.4A102,102,0,0,1,214,43a51.29,51.29,0,0,0-88.7,35.1,56.68,56.68,0,0,0,1.3,11.7A145.61,145.61,0,0,1,20.9,36.2a51.48,51.48,0,0,0,15.9,68.5,51.87,51.87,0,0,1-23.2-6.4V99a51.39,51.39,0,0,0,41.1,50.3,51.58,51.58,0,0,1-23.1.9,51.28,51.28,0,0,0,47.9,35.6,102.85,102.85,0,0,1-63.7,22,98.68,98.68,0,0,1-12.2-.7A145.86,145.86,0,0,0,82.1,230" transform="translate(-3.6 -26.8)" style="fill:#434343"/></svg>