<svg xmlns="http://www.w3.org/2000/svg" viewBox="0 0 400 400"><path d="M50 294.3c28.1 18.1 60.9 27.6 94.3 27.6 113.2 0 175.1-93.8 175.1-175.1 0-2.7 0-5.3-.2-8 12-8.7 22.4-19.5 30.7-31.8-11.2 5-23.1 8.2-35.4 9.7 12.8-7.7 22.5-19.8 27.1-34-12.1 7.2-25.3 12.2-39.1 14.9-23.3-24.8-62.3-26-87.1-2.7-16 15-22.8 37.4-17.8 58.8-49.5-2.5-95.6-25.9-126.9-64.3-16.3 28.1-8 64.1 19.1 82.2-9.8-.3-19.4-2.9-27.9-7.7v.8c0 29.3 20.7 54.5 49.4 60.3-9.1 2.5-18.6 2.8-27.8 1.1 8.1 25.1 31.2 42.3 57.5 42.8-25.7 20.1-58.5 29.3-91 25.4z" fill="#fff"/></svg>